HIERARCHY
ROOT root
{
	OFFSET 0.000000 0.000000 0.000000
	CHANNELS 6 Xposition Yposition Zposition Zrotation Yrotation Xrotation
	JOINT lhip
	{
		OFFSET 0.058581 -0.082280 -0.017664
		CHANNELS 3 Zrotation Yrotation Xrotation
		JOINT lknee
		{
			OFFSET 0.043451 -0.386469 0.008037
			CHANNELS 3 Zrotation Yrotation Xrotation
			JOINT lankle
			{
				OFFSET -0.014790 -0.426874 -0.037428
				CHANNELS 3 Zrotation Yrotation Xrotation
				JOINT ltoe
				{
					OFFSET 0.041054 -0.060286 0.122042
					CHANNELS 3 Zrotation Yrotation Xrotation
					End Site
					{
						OFFSET 0.000000 0.000000 0.000000
					}
				}
			}
		}
	}
	JOINT rhip
	{
		OFFSET -0.060310 -0.090513 -0.013543
		CHANNELS 3 Zrotation Yrotation Xrotation
		JOINT rknee
		{
			OFFSET -0.043257 -0.383688 -0.004843
			CHANNELS 3 Zrotation Yrotation Xrotation
			JOINT rankle
			{
				OFFSET 0.019056 -0.420046 -0.034562
				CHANNELS 3 Zrotation Yrotation Xrotation
				JOINT rtoe
				{
					OFFSET -0.034840 -0.062106 0.130323
					CHANNELS 3 Zrotation Yrotation Xrotation
					End Site
					{
						OFFSET 0.000000 0.000000 0.000000
					}
				}
			}
		}
	}
	JOINT lowerback
	{
		OFFSET 0.004439 0.124404 -0.038385
		CHANNELS 3 Zrotation Yrotation Xrotation
		JOINT upperback
		{
			OFFSET 0.004488 0.137956 0.026820
			CHANNELS 3 Zrotation Yrotation Xrotation
			JOINT chest
			{
				OFFSET -0.002265 0.056032 0.002855
				CHANNELS 3 Zrotation Yrotation Xrotation
				JOINT lowerneck
				{
					OFFSET -0.013390 0.211636 -0.033468
					CHANNELS 3 Zrotation Yrotation Xrotation
					JOINT upperneck
					{
						OFFSET 0.010113 0.088937 0.050410
						CHANNELS 3 Zrotation Yrotation Xrotation
						End Site
						{
							OFFSET 0.000000 0.000000 0.000000
						}
					}
				}
				JOINT lclavicle
				{
					OFFSET 0.071702 0.114000 -0.018898
					CHANNELS 3 Zrotation Yrotation Xrotation
					JOINT lshoulder
					{
						OFFSET 0.122921 0.045205 -0.019046
						CHANNELS 3 Zrotation Yrotation Xrotation
						JOINT lelbow
						{
							OFFSET 0.255332 -0.015649 -0.022946
							CHANNELS 3 Zrotation Yrotation Xrotation
							JOINT lwrist
							{
								OFFSET 0.265709 0.012698 -0.007375
								CHANNELS 3 Zrotation Yrotation Xrotation
								End Site
								{
									OFFSET 0.000000 0.000000 0.000000
								}
							}
						}
					}
				}
				JOINT rclavicle
				{
					OFFSET -0.082954 0.112472 -0.023707
					CHANNELS 3 Zrotation Yrotation Xrotation
					JOINT rshoulder
					{
						OFFSET -0.113228 0.046853 -0.008472
						CHANNELS 3 Zrotation Yrotation Xrotation
						JOINT relbow
						{
							OFFSET -0.260127 -0.014369 -0.031269
							CHANNELS 3 Zrotation Yrotation Xrotation
							JOINT rwrist
							{
								OFFSET -0.269108 0.006794 -0.006027
								CHANNELS 3 Zrotation Yrotation Xrotation
								End Site
								{
									OFFSET 0.000000 0.000000 0.000000
								}
							}
						}
					}
				}
			}
		}
	}
}
MOTION
Frames: 7
Frame Time: 0.033333
1.037582 0.184982 0.973109 -76.308932 9.623675 77.775937 7.770771 -2.501021 17.442866 -5.312929 -28.559703 18.627548 5.430486 11.445902 -30.444636 0.000000 -0.000000 0.000000 -7.595676 -1.535777 -21.320865 3.224769 -8.111827 24.096910 7.495050 -10.490802 -1.453594 0.000000 -0.000000 0.000000 -3.179631 -3.185867 9.490575 4.593369 -2.862306 8.264082 1.149627 -5.105502 8.008313 8.627443 0.054518 9.663378 4.952376 -6.800514 8.560939 -22.716538 10.828797 3.546034 -54.541042 -8.166893 7.460853 6.961842 -27.400178 4.658193 1.436125 -1.053018 -11.726848 26.519241 -8.404081 -2.781614 58.365070 -0.297331 12.302881 -15.234277 26.682918 -5.676919 5.344387 -1.123457 -5.731899 
1.021431 0.189013 0.970026 -75.409049 10.172625 77.355151 9.214183 -2.483577 18.715493 -5.625471 -29.468534 19.127583 5.347519 11.266000 -31.278648 0.000000 -0.000000 0.000000 -8.809904 -2.484309 -21.122319 3.338222 -6.900131 19.702388 8.321924 -10.146304 2.355026 0.000000 -0.000000 0.000000 -3.371828 -3.299493 8.934894 4.732762 -2.989837 8.517144 1.353391 -5.290026 7.850577 8.764217 -1.293476 10.126825 5.536577 -7.374899 8.250946 -22.376339 11.264716 4.124227 -53.972397 -8.691750 7.211008 6.552834 -27.693874 4.796014 1.597844 -1.195623 -12.511479 26.528816 -9.072648 -2.541294 58.472949 -1.054483 12.121692 -15.044851 26.016927 -5.678057 4.943093 -1.265173 -5.156592 
1.004618 0.193887 0.966591 -74.701073 10.473849 77.004711 10.505188 -2.308261 19.985365 -5.824325 -30.078796 19.514825 5.149867 10.992568 -32.001744 0.000000 -0.000000 0.000000 -9.874889 -3.577101 -20.986787 3.127897 -6.079851 16.002674 9.386836 -10.170254 6.858832 0.000000 -0.000000 0.000000 -3.792121 -3.447965 8.379872 4.711663 -3.073528 8.729284 1.515820 -5.349559 7.789707 8.509779 -1.195757 11.087917 5.838466 -6.562391 8.601623 -21.989795 11.651256 4.611246 -53.347800 -9.122205 6.927444 6.276210 -28.230451 4.901522 1.981797 -1.074360 -12.673161 26.752320 -9.793966 -2.356633 58.493757 -1.506895 11.920459 -14.899429 25.354149 -5.973082 4.907047 -1.514609 -4.660246 
0.987343 0.199041 0.962879 -74.104802 10.684073 76.650270 11.757050 -2.313716 21.341653 -6.102220 -30.617097 19.810738 4.680739 10.783594 -32.574138 0.000000 -0.000000 0.000000 -10.761027 -4.566625 -20.875537 2.979343 -5.975972 13.516794 10.447455 -10.354683 10.491448 0.000000 -0.000000 0.000000 -4.242639 -3.658750 8.248519 4.663295 -3.078493 8.689918 1.693517 -5.468582 7.622088 8.360923 -1.827889 11.396068 6.176327 -6.669606 8.410631 -21.890107 12.046320 4.994710 -52.302377 -9.141247 6.703418 5.802516 -29.282852 5.493204 1.755979 -1.487455 -12.652506 26.808738 -10.102135 -2.162031 58.468212 -2.060796 11.666318 -14.679893 24.746064 -6.246130 5.148886 -1.598394 -4.212407 
0.967008 0.205606 0.958345 -72.740208 10.696446 76.611830 13.144111 -2.655657 22.415620 -6.519195 -31.231263 20.090744 4.389370 10.273833 -33.253915 0.000000 -0.000000 0.000000 -11.879743 -6.443672 -20.427677 3.113562 -6.598869 11.863545 11.236062 -10.827841 13.875479 0.000000 -0.000000 0.000000 -5.007818 -3.535393 7.045951 4.566189 -3.924222 9.610644 1.752204 -5.718878 7.627666 8.496417 -1.748495 11.676402 6.709270 -6.594560 8.278463 -21.644903 12.392356 5.443253 -51.102355 -9.402609 6.572204 5.184264 -30.477694 6.056626 2.010543 -1.745287 -12.987171 27.234024 -10.805269 -2.093265 58.372850 -2.571515 11.562978 -14.654028 24.835552 -6.159590 5.415937 -1.711082 -3.754899 
0.947485 0.213006 0.954259 -71.591023 10.669588 76.441392 14.624535 -2.745902 23.276004 -7.001909 -31.698369 20.804187 3.812848 9.657275 -33.247600 0.000000 -0.000000 0.000000 -12.812156 -7.374475 -19.543367 3.265198 -7.466127 10.247884 12.038603 -11.721657 17.623717 0.000000 -0.000000 0.000000 -5.816624 -3.520610 6.941481 4.526414 -4.371073 9.787440 2.024475 -6.058523 7.508052 8.525292 -2.838525 12.377261 7.170934 -6.744632 8.043093 -21.695698 12.599194 5.973501 -49.992371 -9.611349 6.222815 4.711014 -31.502289 6.348967 2.698965 -1.708224 -12.636690 27.313835 -11.135866 -2.127963 58.111797 -3.160228 11.225639 -14.175562 24.483651 -6.549365 5.211985 -1.899192 -3.430490 
0.926093 0.221901 0.949839 -70.531253 10.602932 76.464552 16.273704 -2.806932 24.156851 -7.286039 -32.397259 21.097598 2.980802 9.039314 -33.383645 0.000000 -0.000000 0.000000 -13.349442 -8.184985 -18.852804 3.404763 -7.462966 9.799415 12.803970 -11.752771 21.005951 0.000000 -0.000000 0.000000 -6.371039 -3.516161 7.002512 4.462395 -4.541182 9.481649 1.954814 -6.405041 7.340146 8.466686 -2.476879 13.014399 7.193346 -6.580795 8.489085 -21.275137 13.047241 6.137263 -48.999388 -9.744236 5.962162 3.537297 -32.280802 7.501633 2.925854 -2.103227 -12.255341 27.524600 -12.037300 -2.362594 57.870663 -3.869450 11.197206 -13.696254 24.407258 -6.454563 4.652273 -1.587900 -2.883912 
